<?xml version="1.0" encoding="UTF-8"?>
<!DOCTYPE svg PUBLIC "-//W3C//DTD SVG 1.1//EN" "http://www.w3.org/Graphics/SVG/1.1/DTD/svg11.dtd">
<!-- Creator: CorelDRAW X6 -->
<?xml-stylesheet href="brain for site.css" type="text/css"?>
<svg xmlns="http://www.w3.org/2000/svg" xml:space="preserve" width="1000px" height="800px" version="1.1" style="shape-rendering:geometricPrecision; text-rendering:geometricPrecision; image-rendering:optimizeQuality; fill-rule:evenodd; clip-rule:evenodd"
viewBox="0 0 1000 800"
 xmlns:xlink="http://www.w3.org/1999/xlink">
 <g id="layer">
  <metadata id="CorelCorpID_0Corel-Layer"/>
  <path id="bee_path" class="beePath str0" d="M309 151c-62,-11 -99,13 -121,47 -27,41 -41,113 -6,174 53,95 72,181 7,279 -57,87 -175,62 -182,-15 -7,-81 48,-120 175,-92 59,13 89,57 119,107 56,92 194,105 274,40 60,-49 104,15 172,-42"/>
  <path id="gyrus_r7" class="fil1" d="M614 497c-26,20 -53,29 -78,35 -17,4 -32,11 -34,-11 -1,-11 1,-21 6,-30 10,-13 19,-1 46,-7 18,-4 31,-15 41,-25 7,-7 12,-15 24,0 8,9 11,26 -5,38z"/>
  <path id="gyrus_r6" class="fil1" d="M686 443c13,-6 21,-9 27,-19 2,-5 2,-13 5,-19 6,-9 24,-25 26,-1 2,24 -5,45 -19,60 -18,21 -36,32 -55,37 -25,6 -39,3 -37,-15 2,-14 0,-26 -9,-33 -15,-14 -10,-23 11,-32 15,-7 7,-4 8,-19 0,-14 7,-20 18,-23 14,-3 13,-8 23,-15 8,-7 18,-6 29,-10 9,-2 12,-7 17,-14 5,-10 10,-9 13,7 2,18 -5,34 -16,42 -10,7 -9,4 -17,25 -5,11 -17,16 -30,24 -5,3 -4,9 6,5z"/>
  <path id="gyrus_r5" class="fil1" d="M605 383c17,-7 34,-9 32,2 -1,10 1,24 -5,29 -4,3 -14,5 -22,16 -36,46 -87,55 -100,37 -6,-8 -5,-21 -5,-34 1,-21 8,-41 31,-58 8,-6 6,-13 3,-25 -5,-15 6,-28 31,-31 23,-7 33,6 32,27 -2,24 3,26 -22,40 -17,9 -24,35 -25,42 -3,11 4,10 7,-2 4,-17 17,-33 43,-43z"/>
  <path id="gyrus_r2" class="fil1" d="M652 151c14,10 19,28 20,34 1,8 5,7 11,16 3,5 6,17 14,17 10,1 5,-7 -1,-23 -4,-9 -6,-27 -16,-38 -8,-10 -25,-17 -30,-22 -5,-7 -8,-17 -10,-23 -4,-9 -13,-13 -26,-15 -9,-1 -13,1 -8,10 6,11 17,19 13,28 -2,9 -2,22 6,32 6,9 17,12 33,19 12,6 4,-23 -11,-31 -5,-3 -1,-8 5,-4z"/>
  <path id="gyrus_l9" class="fil1" d="M433 628c-16,-9 -26,-3 -35,-7 -14,-5 -26,-11 -3,-9 16,1 31,6 46,10 8,2 14,3 20,2 23,-1 24,-10 2,-8 -15,2 -29,-5 -38,-6 -10,-2 -12,-11 11,-19 8,-3 26,-11 35,-13 13,-2 32,-16 20,6 -2,5 -12,8 -20,11 -22,9 -10,14 1,7 20,-11 29,15 15,23 -17,8 -35,9 -54,3z"/>
  <path id="gyrus_l8" class="fil1" d="M323 571c18,20 40,30 66,32 30,1 17,-3 -1,-7 -16,-3 -27,-12 -35,-20 -8,-9 -3,-12 -15,-14 -7,-2 -13,-2 -17,-4 -15,-5 -10,0 2,13z"/>
  <path id="gyrus_l7" class="fil1" d="M330 551c-35,-8 -46,-22 -62,-44 -8,-10 -5,-12 4,-8 13,7 8,3 19,14 13,13 30,20 49,23 22,3 9,0 23,13 8,6 17,10 29,9 18,0 16,-2 36,1 21,3 40,5 54,-6 15,-11 23,-12 8,6 -6,8 -17,9 -30,15 -43,22 -75,23 -103,-8 -13,-15 -6,-10 -27,-15z"/>
  <path id="gyrus_l5" class="fil1" d="M258 378c-10,-6 -11,-14 -11,-24 0,-10 3,-19 15,-25 8,-4 18,2 25,2 7,0 12,-3 17,-6 6,-3 14,-8 9,6 -4,14 -1,11 7,-1 15,-24 36,-26 52,-11 17,15 34,21 53,18 50,-3 71,13 68,53 -1,10 -6,8 -22,2 -18,-6 -17,-1 -4,6 10,4 23,10 24,18 5,31 15,65 3,71 -17,8 -30,-17 -47,-27 -11,-7 -17,-1 -27,-13 -4,-6 -5,-16 -18,-34 -10,-15 -20,-23 -37,-27 -19,-1 -39,-12 -55,-11 -19,1 -38,12 -52,3z"/>
  <path id="gyrus_l4" class="fil1" d="M376 289c1,-16 6,-27 17,-33 18,-9 16,-14 -2,-6 -12,5 -22,-12 -13,-31 8,-17 28,-31 52,-35 13,-3 21,-8 29,-34 4,-12 15,-19 25,-10 12,10 12,25 7,40 -8,24 -5,38 0,58 5,19 -6,28 -26,26 -18,-1 -31,1 -40,6 -15,10 1,5 8,4 26,-4 41,-1 49,7 19,23 3,57 -24,50 -16,-4 -26,-4 -38,-2 -26,5 -45,-11 -44,-40zm86 -69c-15,-9 -29,-14 -45,-8 -4,1 -6,0 -1,-4 7,-6 17,-5 31,-4 7,1 11,-5 15,-8 5,-6 3,1 1,4 -3,5 -7,6 -6,9 1,1 4,4 6,7 3,3 4,6 -1,4z"/>
  <path id="gyrus_l3" class="fil1" d="M332 181c-12,10 -12,8 -16,21 -3,9 0,11 -12,14 -14,4 -10,-14 -1,-29 11,-16 24,-22 27,-21 3,2 4,13 2,15z"/>
  <g id="bee_bzz">
   <g transform="matrix(0.90367 -0.428229 0.428229 0.90367 147.984 397.793)">
    <text x="500" y="400"  class="fil1 fnt0">бзззь</text>
   </g>
   <g transform="matrix(0.715461 -0.698653 0.698653 0.715461 155.872 575.123)">
    <text x="500" y="400"  class="fil1 fnt0">ззь</text>
   </g>
  </g>
  <g id="bee_popup_group" class="bee_popup_group">
    <g id="bee">
     <path class="fil3" d="M837 581c-16,7 -32,4 -45,-11 3,-13 13,-20 26,-17 12,2 19,14 19,28z"/>
     <path class="fil4" d="M837 581c-18,7 -30,3 -45,-11 0,0 -5,4 -16,12 -10,7 -16,16 -15,27 3,13 13,24 29,22 6,-2 14,-9 27,-17 14,-9 20,-20 20,-33z"/>
     <path class="fil5" d="M826 607l-39 -34 -4 3c10,14 20,27 31,40 4,-2 8,-5 12,-9z"/>
     <path class="fil5" d="M791 617l4 -6c-8,-9 -15,-17 -23,-26 -1,1 -2,2 -3,3l22 29z"/>
     <path class="fil5" d="M785 631l-24 -22c3,14 10,22 24,22z"/>
     <path class="fil6" d="M847 550c-1,0 0,2 1,2 -4,7 -10,12 -17,14 -1,0 -2,0 -1,1 0,1 0,1 1,0 9,-2 15,-7 18,-14 2,1 4,-1 3,-3 -1,-1 -4,-2 -5,0z"/>
     <path class="fil6" d="M825 556c1,0 2,0 2,0 5,-4 8,-10 9,-17 3,-1 3,-4 1,-5 -2,-1 -4,1 -4,2 1,1 1,2 2,2 -2,9 -5,14 -10,18z"/>
     <path class="fil7" d="M818 561c-2,1 -2,3 -1,4 1,1 4,1 4,-1 0,-2 -2,-3 -3,-3z"/>
     <path class="fil8" d="M812 590c-11,6 -23,17 -23,34 -1,14 6,19 14,14 9,-5 14,-15 15,-30 0,-14 -3,-19 -6,-18z"/>
     <path class="fil7" d="M817 557c-2,1 -2,2 -1,3 1,2 4,1 4,-1 0,-1 -2,-3 -3,-2z"/>
    </g>

    <path id="bee_popup" class="fil1" d="M884 582c-9,1 -12,1 -22,-1 10,-5 14,-8 17,-17 -17,-34 8,-80 50,-82 33,-1 55,21 62,39 25,58 -48,114 -107,61z"/>
    <text x="904" y="550" id="bee_text" class="text fnt1">travel</text>

  </g>
  
  <g class="gyrus_group" id="_535764384">
   <path id="gyrus_r3" class="fil2" d="M679 309c6,-1 9,4 4,7 -17,7 -28,19 -40,23 -26,9 -29,-5 -34,11 -7,23 -2,23 12,20 15,-4 28,9 36,4l12 -8c10,-7 18,-18 40,-21 9,-2 13,-5 21,-21 5,-9 -3,-14 -6,-25 -4,-14 3,-13 -1,-24 -5,-14 -10,-8 -14,1 -3,7 -6,7 -15,2 -21,-10 -40,-1 -60,23 -4,4 -9,1 -6,-4 18,-29 42,-38 69,-26 2,1 7,0 13,-8 8,-14 -1,-26 -10,-33 -7,-5 -16,-10 -19,-16 -2,-5 -9,-6 -13,-13 -13,-16 -8,3 -5,10 11,23 -1,24 -9,1 -4,-24 -25,-37 -36,-33 -9,3 -9,0 -4,-10 5,-10 -4,-16 -17,-3 -13,13 -15,22 -10,35 5,11 7,13 17,8 6,-3 10,-5 14,-5 5,-1 6,7 1,9 -6,3 -26,4 -28,11 -7,29 39,37 14,81 -6,9 -2,20 2,25 7,8 29,3 46,-6 8,-5 14,-13 26,-15z"/>
   <text x="774" y="239" id="label_r3" class="text fnt1">Motion Pictures</text>
   <polyline id="line_r3" class="fil0 str1" points="709,318 765,250 874,250 "/>
  </g>
  <g class="gyrus_group" id="_535763016">
   <path id="gyrus_r8" class="fil2" d="M552 590c9,1 17,1 24,0 16,-2 19,-9 4,14 -10,15 -20,27 -44,25 -26,0 -38,-9 -39,-31 1,-11 10,-16 5,-22 -7,-10 1,-30 9,-31 37,-4 65,-13 107,-34 9,-5 12,9 9,23 -3,13 -17,32 -22,37 -7,6 -26,15 -55,12 -26,-3 -21,4 2,7zm33 -30c-16,6 -30,8 -51,2 -5,-1 -7,-6 12,-3 18,3 31,-5 39,-6 16,-3 15,1 0,7z"/>
   <text x="632" y="732" id="label_r8" class="text fnt1">Art</text>
   <polyline id="line_r8" class="fil0 str1" points="522,604 621,739 653,739 "/>
  </g>
  <g class="gyrus_group" id="_535762440">
   <path id="gyrus_l1" class="fil2" d="M391 165c3,21 15,21 33,15 15,-4 23,-7 20,-21 0,-3 -7,-4 -18,-4 -11,0 -3,-4 2,-3 11,2 24,-1 28,-9 1,-2 3,-8 1,-12 -8,-14 20,-2 24,0 13,5 17,-22 10,-24 -20,-3 -19,-10 -11,-12 4,-1 9,1 11,1 5,-2 2,-7 -12,-18 -9,-7 -29,-5 -54,6 -5,2 -7,10 -7,16 0,4 0,19 10,4 4,-6 18,-4 22,-12 4,-10 11,1 6,8 -4,5 -11,2 -19,8 -9,5 -11,10 -7,17 -8,3 -18,9 -29,15 -10,8 -11,16 -10,25z"/>
   <polyline id="line_l1" class="fil0 str1" points="441,88 407,41 320,41 "/>
   <text x="251" y="33" id="label_l1" class="text fnt1">Прого-блог</text>
  </g>
  <g class="gyrus_group" id="_535769208">
   <path id="gyrus_r4" class="fil2" d="M538 322c14,-10 29,-12 46,-13 12,0 11,1 16,-13 6,-18 -3,-36 -18,-61 -7,-11 -14,-15 -34,-13 -16,0 -28,1 -37,7 -11,4 -11,15 -11,32 1,19 7,26 16,19 20,-15 40,-19 -2,10 -24,17 -15,71 -1,81 8,5 22,-3 18,-13 -6,-16 -4,-27 7,-36z"/>
   <polyline id="line_r4" class="fil0 str1" points="574,273 700,121 766,121 "/>
   <text x="711" y="112" id="label_r4" class="text fnt1">Scenario</text>
  </g>
  <g class="gyrus_group" id="_535767792">
   <path id="gyrus_r9" class="fil2" d="M685 532c-7,11 -22,17 -46,21 -14,2 -11,4 -16,12 -4,9 -9,16 -18,25 -6,6 -21,19 -25,31 -4,11 34,-9 58,-26 23,1 39,-11 48,-37 31,-25 51,-97 28,-77 -18,16 -33,27 -61,27 -26,0 -12,5 -17,23 -2,9 -7,13 7,11 10,-1 24,-2 36,-15 9,-8 9,-1 6,5z"/>
   <polyline id="line_r9" class="fil0 str1" points="663,583 785,732 862,732 "/>
   <text x="792" y="721" id="label_r9" class="text fnt1">Photographs</text>
  </g>
  <g class="gyrus_group" id="_535765800">
   <path id="gyrus_l2" class="fil2" d="M300 318c-34,12 -48,-13 -36,-30 5,-8 11,-11 8,-3 -1,4 -2,8 -1,15 1,5 5,9 7,1 0,-3 0,-6 1,-10 3,-10 15,-10 31,-8 12,2 17,3 1,-3 -11,-4 -21,-7 -28,-7 -4,0 -6,-3 -7,-9 -2,-29 16,-45 37,-33 4,2 11,12 13,13 5,6 5,0 1,-5 -3,-4 -5,-11 -6,-16 -1,-12 4,-30 19,-35 5,-1 14,0 18,-1 7,-1 27,-25 -2,-11 -25,13 -19,-17 -12,-22 10,-7 13,-18 -4,0 -8,8 -7,-1 -4,-8 5,-10 19,-16 31,-21 16,-8 20,-25 30,-30 12,-7 17,-8 15,4 -2,22 13,14 -8,27 -18,10 -24,24 -20,44 4,19 2,15 -10,29 -10,11 -16,27 -10,46 1,6 7,7 9,14 3,9 -3,11 -8,8 -10,-7 -21,2 -10,3 4,0 9,3 12,10 2,4 2,10 1,14 -2,15 -4,8 -16,8 -17,-2 -27,7 -52,16z"/>
   <polyline id="line_l2" class="fil0 str1" points="298,256 190,138 140,138 "/>
   <text x="111" y="130" id="label_l2" class="text fnt1">Game</text>
  </g>
  <g class="gyrus_group" id="_289461544">
   <path id="gyrus_l6" class="fil2" d="M296 425c2,6 1,11 -18,5 -14,-4 -25,-6 -27,-23 -1,-10 7,-16 14,-17 14,-3 22,-1 38,-6 16,-5 30,3 40,6 10,3 6,5 1,12 -9,12 1,5 6,2 18,-7 29,-4 40,11 12,29 26,45 40,49 14,2 21,12 37,29 4,4 9,5 15,5 12,1 12,-1 11,13 -2,25 -3,34 -36,40 -15,3 -33,-1 -52,-14 -10,-7 -11,0 -5,4 11,8 6,10 -2,10 -16,1 -37,-11 -38,-27 -1,-11 -9,-22 -7,-1 2,12 -22,7 -32,1 -19,-10 -25,-15 -25,-29 -1,-12 -6,-15 -8,-5 -1,8 -11,6 -26,-17 -11,-17 -14,-34 1,-16 10,11 13,10 25,13 21,4 22,-4 7,-4 -20,1 -24,-10 -30,-16 -8,-9 -9,-13 4,-13 32,-1 29,14 52,26 12,6 2,11 2,19 1,11 8,14 10,-2 1,-8 3,-9 11,-9 9,-1 14,1 19,10 10,22 32,34 50,35 8,0 17,8 26,11 7,2 8,-2 3,-4 -18,-7 -21,-10 -13,-15 11,-5 6,-6 -5,-5 -30,4 -54,-14 -58,-37 -3,-17 5,-25 1,-27 -5,-2 -8,3 -9,13 -1,12 3,12 -12,11 -25,-2 -38,-20 -44,-53 -1,-9 -10,-2 -6,15z"/>
   <polyline id="line_l6" class="fil0 str1" points="258,413 214,369 109,369 "/>
   <text x="55" y="359" id="label_l6" class="text fnt1">Software</text>
  </g>
  <g class="gyrus_group" id="_289460728">
   <path id="gyrus_r1" class="fil2" d="M525 163c-11,4 -19,7 -22,6 -6,0 -3,-11 -1,-15 4,-9 12,-9 20,-13 10,-6 11,-12 7,-10 -29,15 -34,3 -14,-34 9,-14 -5,-1 -11,-10 -10,-12 9,-31 28,-28 12,2 15,10 19,13 7,5 15,1 25,4 7,3 12,11 17,17 5,8 2,10 -3,10 -6,-1 -9,2 -1,6 2,2 8,2 11,4 15,13 14,28 10,30 -2,1 -9,-5 -12,-4 -6,2 4,9 0,14 -6,6 -9,11 -12,14 -4,4 -5,-5 -2,-10 3,-6 7,-12 1,-18 -4,-4 -11,-5 -18,-14 -2,-5 -7,-13 -6,-21 0,-14 -4,-14 -7,0 -2,13 3,23 16,35 7,6 7,23 4,36 -6,21 10,39 -1,40 -16,0 -21,2 -26,-1 -9,-4 -2,-11 -3,-18 -1,-6 -6,3 -10,9 -3,4 -7,9 -11,12 -21,12 -29,-1 -24,-33 1,-8 9,-10 22,-16 8,-3 10,-5 4,-5z"/>
   <polyline id="line_r1" class="fil0 str1" points="542,99 585,41 661,41 "/>
   <text x="595" y="33" id="label_r1" class="text fnt1">Filmmaking</text>
  </g>
 </g>
</svg>
