<?xml version="1.0" encoding="UTF-8"?>
<!DOCTYPE svg PUBLIC "-//W3C//DTD SVG 1.1//EN" "http://www.w3.org/Graphics/SVG/1.1/DTD/svg11.dtd">
<!-- Creator: CorelDRAW X6 -->
<?xml-stylesheet href="eye.css" type="text/css"?>
<svg xmlns="http://www.w3.org/2000/svg" xml:space="preserve" width="2055px" height="3508px" version="1.1" style="shape-rendering:geometricPrecision; text-rendering:geometricPrecision; image-rendering:optimizeQuality; fill-rule:evenodd; clip-rule:evenodd"
viewBox="0 0 2055 3508"
 xmlns:xlink="http://www.w3.org/1999/xlink">
 <g id="layer">
  <metadata id="CorelCorpID_0Corel-Layer"/>
  <polygon id="bg" class="fil0" points="31,31 2024,31 2011,3458 44,3465 "/>
  <path id="eye5" class="fil1" d="M689 3297c-72,-98 -13,-190 164,-234 245,-61 446,57 429,170 -31,205 -507,180 -593,64z"/>
  <path id="eye4" class="fil1" d="M734 2451c28,-74 5,-149 -53,-181 -100,-56 -217,-15 -259,93 -13,34 -2,86 15,116 57,96 250,96 297,-28z"/>
  <path id="eye3" class="fil1" d="M1381 1507c-86,44 -260,23 -302,-72 -40,-92 6,-162 89,-180 66,-15 143,-7 216,41 84,56 67,174 -3,211z"/>
  <path id="eye2" class="fil1" d="M1015 737c83,0 149,66 149,148 0,83 -66,149 -149,149 -82,0 -148,-66 -148,-149 0,-82 66,-148 148,-148z"/>
  <path id="eye1" class="fil1" d="M1359 418c-79,32 -247,22 -288,-65 -29,-61 -3,-119 48,-142 78,-36 177,-33 259,24 86,59 55,152 -19,183z"/>
  <path id="fg" class="fil2" d="M195 3157c-18,-10 -19,-10 -6,-22 265,-247 542,-368 841,-355 296,13 554,150 791,394 18,18 17,13 -14,23 -452,134 -881,173 -1290,79 -128,-29 -233,-73 -322,-119zm185 -814c-29,-14 -38,-22 -23,-35 265,-230 536,-322 808,-260 173,39 329,147 487,293 21,19 17,15 -19,25 -488,139 -915,142 -1253,-23zm43 -727c-19,-10 -24,-10 -15,-19 204,-192 433,-288 690,-257 206,24 382,151 502,280 16,17 14,18 -7,24 -234,63 -450,98 -652,93 -213,-6 -383,-50 -518,-121zm114 -681c-10,-6 -12,-8 -6,-13 188,-163 369,-229 549,-204 134,20 268,94 406,227 12,11 7,9 -16,15 -203,53 -381,85 -548,77 -147,-6 -277,-42 -385,-102zm132 -597c-1,4 2,4 7,7 62,35 145,57 232,64 185,15 327,-14 433,-47 11,-3 14,-6 3,-17 -109,-107 -223,-157 -343,-158 -123,-2 -234,51 -332,151zm-669 -338l2055 0 0 3501 -2055 7 0 -3508z"/>
  <path id="lash1" class="fil1" d="M878 126c-126,42 -224,122 -278,210 0,1 -1,3 1,1 137,-137 267,-197 392,-192 151,5 281,64 391,190 5,8 10,8 14,-1 16,-61 -19,-114 -92,-175 -159,-130 -299,-163 -427,-84 -1,1 -3,3 0,2 158,-70 321,-8 464,168 2,2 3,8 -4,1 -148,-120 -327,-163 -461,-120z"/>
  <path id="lash2" class="fil1" d="M535 827c-8,21 -4,21 6,12 115,-98 260,-164 443,-160 181,4 342,62 480,164 16,12 20,10 5,-4 -88,-79 -189,-125 -299,-152 -188,-47 -371,-21 -540,60 -10,4 -12,3 -7,-6 10,-16 47,-49 109,-99 8,-6 6,-9 -2,-5 -28,15 -71,43 -120,91 -7,7 -10,3 -6,-5 51,-103 127,-172 227,-211 28,-11 26,-17 -1,-10 -129,31 -225,140 -295,325z"/>
  <path id="lash3" class="fil1" d="M380 1668c46,28 50,30 7,15 -107,-37 -114,-89 -75,-131 56,-60 126,-111 202,-156 95,-57 199,-118 322,-159 222,-74 423,-70 598,20 114,59 179,128 223,181 9,10 -1,3 -17,-12 -189,-180 -404,-225 -621,-198 -134,16 -283,68 -447,166 -87,52 -120,73 -127,80 -5,7 -3,8 7,3 187,-96 429,-206 645,-217 22,-2 35,2 1,10 -168,35 -306,78 -416,116 -171,61 -278,118 -322,166 -38,41 -33,83 20,116z"/>
  <path id="lash4" class="fil1" d="M438 2179c-2,24 2,14 22,-10 37,-42 77,-105 165,-157 232,-136 539,-68 901,195 43,31 82,69 127,106 19,16 21,12 1,-9 -81,-86 -198,-192 -395,-287 -211,-101 -427,-113 -644,-52 -26,7 -42,-2 -24,-29 17,-26 46,-68 90,-88 25,-12 28,-19 -6,-9 -35,10 -125,96 -177,220 -8,18 -9,14 -9,-12 1,-94 21,-161 46,-209 3,-6 -12,6 -22,24 -20,34 -57,133 -75,317z"/>
  <g id="lash5">
   <path id="lash5-2" class="fil1" d="M302 2912c-39,18 -50,17 -27,-12 138,-173 349,-269 634,-289 181,-13 364,2 547,59 38,12 30,13 -21,1 -277,-61 -540,-52 -782,33 -122,43 -211,100 -278,151 -23,16 -23,24 6,8 158,-92 340,-174 567,-171 339,6 625,145 862,334 24,19 16,16 -21,-10 -246,-173 -500,-258 -766,-262 -130,-3 -263,19 -400,49 -97,22 -202,56 -321,109z"/>
   <path id="lash5-1" class="fil1" d="M76 3147c-18,-18 -18,1 16,35 142,142 385,216 724,227 329,10 764,-39 1128,-125 28,-7 37,-53 32,-77 -4,-23 -20,-55 -52,-70 -32,-16 -37,-10 -12,12 53,46 49,79 -11,93 -254,62 -564,111 -929,125 -432,16 -734,-65 -896,-220z"/>
  </g>
 </g>
</svg>
